<svg id="icon-gifting-service" width="32" height="30" version="1.1" viewBox="0 0 32 30" xmlns="http://www.w3.org/2000/svg">
  <path d="m10.68 0.6-0.1144 0.2774s-0.2875 0.6906-0.5666 1.427c-0.1396 0.3681-0.2774 0.7477-0.3788 1.065-0.0507 0.1588-0.09185 0.3013-0.1209 0.4274-0.02903 0.1261-0.07055 0.1966-0.02914 0.4026-4.558e-4 -0.00227 0.00843 0.138 0.0054 0.3-0.00304 0.162-0.00987 0.3628-0.0054 0.5742 0.00393 0.185 0.00838 0.3819 0.04101 0.5763h-2.932v4.831h1.262l0.00324 6.604c-0.8676 0.4222-1.717 0.8681-2.575 1.299h-0.00108v0.0011c-0.306 0.1549-0.6221 0.3152-0.9379 0.4749-0.2479-0.3901-0.7505-0.5671-1.195-0.3929l-2.503 0.9757c-0.5024 0.1966-0.7573 0.7729-0.5645 1.277l2.627 7.797c0.2386 0.7082 0.8735 0.7353 1.284 0.5742l2.88-1.129c0.7817-0.5201 0.54-0.834 0.5019-1.44 0.2056-0.09551 0.409-0.1911 0.6098-0.3141l0.00108-0.0011h0.00108c1.278-0.7922 2.861-0.9088 4.241-0.3119 1.873 0.694 3.838 1.299 5.54 1.871 0.8629 0.295 1.815 0.1795 2.582-0.3141l10.8-6.27h0.0022l0.0011-0.0011c0.4869-0.3147 0.799-0.8388 0.8483-1.416 0.03201-0.278 0.01531-0.5804-0.2126-0.8073-0.2291-0.2281-0.5492-0.2435-0.8386-0.1932l-0.0032 0.0011h-0.0032c-0.3351 0.06418-0.6632 0.1604-0.98 0.2871-0.8859 0.3504-1.775 0.7016-2.663 1.052v-9.625h1.013v-4.831h-2.467c0.03265-0.1944 0.03715-0.3913 0.04101-0.5763 0.0044-0.2114-0.0033-0.4131-0.0065-0.5753-0.0032-0.1622 0.0057-0.3017 0.0054-0.3 0.04059-0.2053-4.8e-5 -0.2766-0.02914-0.4026-0.02911-0.126-0.07123-0.2676-0.1219-0.4263-0.1014-0.3174-0.2393-0.6972-0.3788-1.065-0.279-0.7362-0.5645-1.427-0.5645-1.427l-0.1155-0.2774-0.2979 0.02266s-3.653 0.24-5.627 2.972h-2.136c-1.974-2.732-5.626-2.972-5.626-2.972zm0.5235 0.9163c0.4399 0.04853 3.19 0.411 4.756 2.63v0.8839c-1.696-0.9674-3.62-1.43-5.572-1.331 0.0091-0.02981 0.01251-0.04698 0.02266-0.07879 0.0932-0.2919 0.2281-0.6626 0.3648-1.023 0.2108-0.5558 0.3404-0.8664 0.4285-1.081zm12.94 0c0.08805 0.2151 0.2178 0.5256 0.4285 1.081 0.1367 0.3606 0.2715 0.7312 0.3648 1.023 0.01017 0.03184 0.01352 0.04895 0.02266 0.07879-1.952-0.09976-3.876 0.3631-5.571 1.33v-0.885c1.567-2.217 4.315-2.58 4.755-2.628zm-7.353 2.908h1.768v1.225h-1.768zm-5.713 0.0831c1.527 0.02305 3.026 0.4088 4.367 1.143h-5.052c-0.04001-0.129-0.08756-0.3472-0.09282-0.5947-0.0038-0.1781 0.0021-0.3611 0.0054-0.5289 0.2686-0.02173 0.5425-0.01364 0.7728-0.01943zm13.19 0.00108c0.257-0.00383 0.5149 0.00274 0.7728 0.01943 0.0034 0.1674 0.0091 0.3501 0.0054 0.5278-0.0052 0.2474-0.05278 0.4657-0.09282 0.5947h-5.053c1.341-0.7341 2.841-1.119 4.368-1.142zm-16.86 1.971h8.108v3.173h-8.108zm8.937 0h0.4026l0.04209 0.02806v-0.02806h1.769v0.02806l0.04209-0.02806h0.3993v3.173h-2.655zm3.484 0h7.647v3.173h-7.647zm-11.16 4.002h6.846v7.6c-1.741-0.5319-3.529-1.139-5.11-1.596h-0.0011c-0.6534-0.138-1.237 0.09036-1.732 0.2137zm7.676 0h2.654v8.926c-0.2704-0.291-0.5704-0.3526-0.9045-0.5116-0.52-0.1688-1.248-0.3969-1.749-0.5547zm3.483 0h6.633v9.951l-4.641 1.821c-0.6441 0.2527-1.379 0.3797-1.992 0.4339zm-9.465 6.85c0.426 0.06809 0.8393 0.2493 1.211 0.3616 0.0014 4.37e-4 0.0029 6.44e-4 0.0043 0.0011 2.17 0.696 4.192 1.332 6.277 1.996 0.6991 0.3173 1.039 0.7317 0.8493 1.231-0.274 0.7237-0.8739 0.7303-1.307 0.6142-1.067-0.2689-2.106-0.5675-3.136-0.8268-0.6775-0.1201-0.9363 0.09571-1.017 0.4587-0.09944 0.4488 0.2274 0.8833 0.5817 1.003l6.002 1.396c1.161 0.2698 5.078-1.622 7.2-2.462l3.231-1.279v-0.0011h0.0011c1.101-0.4196 1.302-0.1047 0.4328 0.6617l-0.0011 0.0011-10.79 6.26c-0.603 0.3478-1.383 0.4049-1.879 0.2374l-5.48-1.849c-1.628-0.7043-3.499-0.5667-5.007 0.368-0.1245 0.07606-0.3176 0.1623-0.4814 0.2396l-1.342-3.415-1.061-2.7c0.3358-0.1697 0.6702-0.3395 0.9908-0.5019 0.8986-0.4519 1.8-0.861 2.655-1.339 0.7541-0.4221 1.297-0.5774 2.067-0.4544zm-6.788 1.919 0.1381 0.3486c0.904 2.291 1.796 4.56 2.718 6.876l0.2288 0.5731c-0.00304 0.06212-0.04065 0.1168-0.1058 0.1425l-2.877 1.129c-0.08612 0.03372-0.172-0.0043-0.2051-0.09066l-2.627-7.797c-0.03893-0.1155 0.0554-0.2036 0.08958-0.2169l2.503-0.9757c0.05254-0.02048 0.1236-0.02587 0.1381 0.01079zm15.42 2.631v0.7328l-1.339-0.3152c0.5041 0.04129 0.9692-0.2488 1.339-0.4177z"/>
</svg>
