<svg id="icon-free-shipping-return" width="32" height="32" viewBox="0 0 32 32" xmlns="http://www.w3.org/2000/svg">
  <path d="m15.5 0.1992c-2.683 0.001422-4.865 2.188-4.863 4.871-1.17e-4 0.00586-1.17e-4 0.01172 0 0.01758 0.03448 0.818 0.2057 1.622 0.5 2.381l-10.72 3.459c-0.182 0.05891-0.3051 0.2286-0.3047 0.4199v0.05274l-0.04102 15.07c-7.311e-4 0.1908 0.1215 0.3603 0.3027 0.4199l14.33 4.682c0.1146 0.04209 0.2318 0.04052 0.3242 0.0078l14.35-4.6c0.182-0.05891 0.3051-0.2286 0.3047-0.4199v-4.244c0.4179-0.3602 0.786-0.7737 1.088-1.236 6.57e-4 -0.0013 0.0013-0.0026 2e-3 -0.0039 1.175-1.838 1.436-3.536 1.094-5-0.3263-1.396-1.176-2.557-2.182-3.496v-1.229c0-0.2209-0.1621-0.3756-0.3067-0.42l-9.652-3.105c0.3845-0.8605 0.6062-1.788 0.6504-2.734 7.96e-4 -0.0065 0.0014-0.01301 2e-3 -0.01953-0.0015-2.683-2.188-4.868-4.871-4.869zm0 0.8809h2e-3c2.202 0.00165 3.977 1.774 3.986 3.975-0.05232 1.092-0.3692 2.156-0.9277 3.096-0.0013 0.00194-0.0026 0.0039-0.0039 0.00586-0.8238 1.429-1.884 2.699-3.055 3.859-1.203-1.195-2.288-2.505-3.125-3.98v-0.00195c-0.5188-0.9092-0.812-1.929-0.8574-2.975 0.0038-2.201 1.778-3.976 3.98-3.979zm0 1.537c-1.348 3e-7 -2.451 1.103-2.451 2.451-7.87e-4 1.347 1.1 2.449 2.447 2.451 0.0016 2.7e-6 0.0023 0.00195 0.0039 0.00195-1e-6 6.51e-4 -1e-6 0.0013 0 0.00195 1.351 0.00118 2.456-1.102 2.457-2.453 1e-6 -6.51e-4 1e-6 -0.0013 0-0.00195-0.0027-1.35-1.107-2.452-2.457-2.451zm0 0.8809c6.51e-4 1.4e-6 0.0013 1.4e-6 2e-3 0 0.8744-5.11e-4 1.574 0.6979 1.576 1.572-0.0016 0.8736-0.7006 1.572-1.574 1.572-6.51e-4 -1.4e-6 -0.0013-1.4e-6 -2e-3 0-6.49e-4 -6.531e-4 -0.0013-0.0013-2e-3 -0.00195-0.8729 2.517e-4 -1.571-0.6974-1.57-1.57v-0.00195c-2.55e-4 -0.8729 0.6974-1.57 1.57-1.57zm-3.994 4.773c0.03531 0.06647 0.06811 0.1337 0.1055 0.1992 0.9612 1.693 2.171 3.233 3.588 4.568 0.1695 0.1596 0.434 0.1596 0.6035 0 1.378-1.296 2.557-2.786 3.504-4.424l8.51 2.738-12.93 4.266-13-4.244zm17.29 3.687v6.492c-0.4898 0.677-1.142 1.221-1.9 1.576-0.0053 0.0025-0.01047 0.0051-0.01563 0.0078-3.064 1.593-8.43 1.595-11.55 1.402v-5.035zm-27.81 0.04883 13.47 4.395v4.967l2e-3 2e-3v0.0039c-0.6335-0.05362-1.03-0.09676-1.215-0.1191v-1.725c-0.0014-0.3814-0.4541-0.5807-0.7363-0.3242l-4.492 4.088c-0.196 0.1782-0.1914 0.4878 0.00977 0.6602l4.494 3.822c0.2805 0.2377 0.7116 0.04715 0.7246-0.3203l0.04492-1.441c0.2084 0.01146 0.5703 0.02778 1.168 0.03516v4.51l-13.5-4.41zm28.69 1.918c0.6059 0.7052 1.119 1.468 1.324 2.346 0.287 1.228 0.09846 2.642-0.9785 4.326-0.29 0.4436-0.6486 0.8389-1.062 1.17-6.51e-4 -1e-6 -0.0013-1e-6 -2e-3 0-0.6305 0.5098-1.322 0.9392-2.059 1.277l-0.0078 0.0039c-3.802 1.833-9.148 2.133-12 2.129-1.24 0-2.006-0.05273-2.006-0.05273-0.2486-0.01623-0.4611 0.1768-0.4688 0.4258l-0.0293 0.9648-3.418-2.906 3.387-3.082v1.127c-3.76e-4 0.222 0.1646 0.4095 0.3848 0.4375 0 0 0.8308 0.1079 2.117 0.2031 6.51e-4 1e-6 0.0013 1e-6 2e-3 0 3.095 0.2195 8.844 0.3758 12.41-1.475 0.9368-0.44 1.74-1.12 2.324-1.975 2e-3 -0.0032 0.0039-0.0065 0.0059-0.0098 0.07938-0.1226 0.1513-0.2494 0.2148-0.3809v-2e-3c0.489-1.001 0.2828-2.163-0.1426-3.256zm-26.45 1.152-0.04297 0.8418 3.852 1.197 0.04297-0.8398zm0.1113 1.838-0.04297 0.8398 3.852 1.199 0.04297-0.8398zm0.1094 1.838-0.04297 0.8398 3.852 1.199 0.04297-0.8418zm25.34 4.227v3.256l-13.46 4.316v-4.502c2.987-0.02235 8.068-0.3436 11.94-2.205l0.0039-2e-3c0.5317-0.2442 1.04-0.5356 1.523-0.8633z"/>
</svg>
